<svg xmlns="http://www.w3.org/2000/svg" role="img" viewBox="0 0 24 24">
  <title>Scrum Alliance</title>
  <path d="M1.6113 7.6836a.2999.2999 0 1 0 .3398.254.2998.2998 0 0 0-.3398-.254zm.879.002a.325.325 0 0 0-.295.3242.325.325 0 0 0 .3262.3261.325.325 0 0 0 .3242-.3261.325.325 0 0 0-.3242-.3243.325.325 0 0 0-.0313 0zM.8261 8.078a.2746.2746 0 0 0-.2325.3106c.022.15.1608.2524.3106.2304a.2711.2711 0 0 0 .2305-.3086c-.0216-.1493-.1591-.2543-.3086-.2324zm2.086.375a.349.349 0 0 0 .3495.3496.349.349 0 0 0 .3477-.3496.3481.3481 0 0 0-.3487-.3469.3481.3481 0 0 0-.3486.347z"/>
</svg>