<svg xmlns="http://www.w3.org/2000/svg" role="img" viewBox="0 0 24 24">
  <title>i18next</title>
  <path d="M14.93646 2.48699v4.51684l5.0758 13.03647s1.5495 3.1839-2.8824 3.9597H7.01922s-4.13084-.4311-3.14053-3.7019L9.21276 7.00401V2.48699h5.7237Zm2.0894 13.10781c-4.4301-1.3742-8.15457-.6365-9.97498-.0788l-1.83572 4.4186c-.78296 2.499 2.27302 2.9417 2.59687 2.9813l.02755.0032h8.44448c3.5407-.5982 2.511-2.972 2.4147-3.1773l-.0068-.0142-1.6661-4.1328ZM15.04366 0c.4954 0 .8958.4387.8958.98109 0 .54203-.4006.98074-.8958.98074H8.95478c-.49315 0-.89428-.43871-.89428-.98074C8.0605.43871 8.46146 0 8.95478 0h6.08888Z"/>
</svg>