<svg xmlns="http://www.w3.org/2000/svg" viewBox="0 0 256 256">
  <style type="text/css">.st0{fill:#326CE5;} .st1{fill:#FFFFFF;}</style>
  <path class="st0" d="M127.5,19c-2,0.1-3.9,0.6-5.7,1.4L43.6,57.8c-4.1,2-7.1,5.7-8.1,10.1l-19.3,83.9c-0.9,3.9-0.2,8,2,11.4l54.1,67.3c2.8,3.5,7.1,5.6,11.7,5.6l86.8,0c4.5,0,8.8-2,11.7-5.6l54.1-67.3c2.8-3.5,3.9-8.1,2.9-12.5L221,67.9c-1-4.4-4-8.1-8.1-10.1l-78.2-37.3C132.5,19.4,130,18.9,127.5,19z"/>
  <path class="st1" d="M190.5,131.3c-0.4,7-2.6,13.1-6.7,18.2c-8.1,10.1-23.7,15.9-43.8,16.5c-0.1,0-3.7,0.4-9.7,0.4c-3.1,0-6.9-0.1-11.2-0.4l-2.8-0.2c-0.3,0.4-0.6,0.8-1,1.1c-1.2,1.1-2.8,1.7-4.5,1.7-0.4,0-0.7,0-1.1-0.1l-18-3.2c-1.8-0.3-2.9-1-3.7-1.9l-3.9-1.8c-2.1-0.9-8.2-4.5-11.3-14c-1.8,1.7-4.4,4.4-7.8,8.9c-7.5,9.7-1.5,18.2,6.2,21.1l19.2,7.2c16.2,6,34.2,5.1,49.7-2.5l6-3l7.9-5.4c2.4-1.7,5.2-2.8,8-3.5c19.6-5.1,33.1-15.4,33.1-27.3C195.1,138.9,193.5,135,190.5,131.3z"/>
</svg>